<svg width="20" height="20" viewBox="0 0 20 20" fill="none" xmlns="http://www.w3.org/2000/svg">
<path d="M10.625 0.625V0.625C10.836 4.67653 14.0735 7.91402 18.125 8.125V8.125V8.125C14.0735 8.33598 10.836 11.5735 10.625 15.625V15.625V15.625C10.414 11.5735 7.17653 8.33598 3.125 8.125V8.125V8.125C7.17653 7.91402 10.414 4.67653 10.625 0.625V0.625Z" fill="url(#paint0_linear_804_8537)"/>
<path d="M5 12.5V12.5C5.08791 14.1881 6.43686 15.5371 8.125 15.625V15.625V15.625C6.43686 15.7129 5.08791 17.0619 5 18.75V18.75V18.75C4.91209 17.0619 3.56314 15.7129 1.875 15.625V15.625V15.625C3.56314 15.5371 4.91209 14.1881 5 12.5V12.5Z" fill="url(#paint1_linear_804_8537)"/>
<defs>
<linearGradient id="paint0_linear_804_8537" x1="12.8125" y1="4.0625" x2="6.82881" y2="15.625" gradientUnits="userSpaceOnUse">
<stop stop-color="#1D85E6"/>
<stop offset="1" stop-color="#B5DFFF"/>
</linearGradient>
<linearGradient id="paint1_linear_804_8537" x1="5" y1="12.5" x2="5" y2="18.75" gradientUnits="userSpaceOnUse">
<stop stop-color="#52A4EF"/>
<stop offset="1" stop-color="#8CC7F8"/>
</linearGradient>
</defs>
</svg>
