<svg width="26" height="23" viewBox="0 0 26 23" fill="none" xmlns="http://www.w3.org/2000/svg">
<g opacity="0.6" filter="url(#filter0_d_716_4823)">
<mask id="mask0_716_4823" style="mask-type:alpha" maskUnits="userSpaceOnUse" x="4" y="0" width="18" height="18">
<rect x="4" width="18" height="18" fill="#D9D9D9"/>
</mask>
<g mask="url(#mask0_716_4823)">
<path d="M12.25 9.6375L11.575 10.2938C11.4375 10.4313 11.2656 10.5 11.0594 10.5C10.8531 10.5 10.675 10.425 10.525 10.275C10.3875 10.1375 10.3188 9.9625 10.3188 9.75C10.3188 9.5375 10.3875 9.3625 10.525 9.225L12.475 7.275C12.625 7.125 12.8 7.05 13 7.05C13.2 7.05 13.375 7.125 13.525 7.275L15.475 9.225C15.6125 9.3625 15.6844 9.53438 15.6906 9.74063C15.6969 9.94688 15.625 10.125 15.475 10.275C15.3375 10.4125 15.1656 10.4844 14.9594 10.4906C14.7531 10.4969 14.575 10.4313 14.425 10.2938L13.75 9.6375V13.5H17.875C18.4 13.5 18.8438 13.3188 19.2062 12.9563C19.5687 12.5938 19.75 12.15 19.75 11.625C19.75 11.1 19.5687 10.6563 19.2062 10.2938C18.8438 9.93125 18.4 9.75 17.875 9.75H16.75V8.25C16.75 7.2125 16.3844 6.32812 15.6531 5.59688C14.9219 4.86563 14.0375 4.5 13 4.5C11.9625 4.5 11.0781 4.86563 10.3469 5.59688C9.61562 6.32812 9.25 7.2125 9.25 8.25H8.875C8.15 8.25 7.53125 8.50625 7.01875 9.01875C6.50625 9.53125 6.25 10.15 6.25 10.875C6.25 11.6 6.50625 12.2188 7.01875 12.7313C7.53125 13.2438 8.15 13.5 8.875 13.5H10C10.2125 13.5 10.3906 13.5719 10.5344 13.7156C10.6781 13.8594 10.75 14.0375 10.75 14.25C10.75 14.4625 10.6781 14.6406 10.5344 14.7844C10.3906 14.9281 10.2125 15 10 15H8.875C7.7375 15 6.76562 14.6062 5.95938 13.8188C5.15313 13.0312 4.75 12.0688 4.75 10.9312C4.75 9.95625 5.04375 9.0875 5.63125 8.325C6.21875 7.5625 6.9875 7.075 7.9375 6.8625C8.25 5.7125 8.875 4.78125 9.8125 4.06875C10.75 3.35625 11.8125 3 13 3C14.4625 3 15.7031 3.50938 16.7219 4.52813C17.7406 5.54688 18.25 6.7875 18.25 8.25C19.1125 8.35 19.8281 8.72188 20.3969 9.36563C20.9656 10.0094 21.25 10.7625 21.25 11.625C21.25 12.5625 20.9219 13.3594 20.2656 14.0156C19.6094 14.6719 18.8125 15 17.875 15H13.75C13.3375 15 12.9844 14.8531 12.6906 14.5594C12.3969 14.2656 12.25 13.9125 12.25 13.5V9.6375Z" fill="black"/>
<path d="M12.25 9.6375L11.575 10.2938C11.4375 10.4313 11.2656 10.5 11.0594 10.5C10.8531 10.5 10.675 10.425 10.525 10.275C10.3875 10.1375 10.3188 9.9625 10.3188 9.75C10.3188 9.5375 10.3875 9.3625 10.525 9.225L12.475 7.275C12.625 7.125 12.8 7.05 13 7.05C13.2 7.05 13.375 7.125 13.525 7.275L15.475 9.225C15.6125 9.3625 15.6844 9.53438 15.6906 9.74063C15.6969 9.94688 15.625 10.125 15.475 10.275C15.3375 10.4125 15.1656 10.4844 14.9594 10.4906C14.7531 10.4969 14.575 10.4313 14.425 10.2938L13.75 9.6375V13.5H17.875C18.4 13.5 18.8438 13.3188 19.2062 12.9563C19.5687 12.5938 19.75 12.15 19.75 11.625C19.75 11.1 19.5687 10.6563 19.2062 10.2938C18.8438 9.93125 18.4 9.75 17.875 9.75H16.75V8.25C16.75 7.2125 16.3844 6.32812 15.6531 5.59688C14.9219 4.86563 14.0375 4.5 13 4.5C11.9625 4.5 11.0781 4.86563 10.3469 5.59688C9.61562 6.32812 9.25 7.2125 9.25 8.25H8.875C8.15 8.25 7.53125 8.50625 7.01875 9.01875C6.50625 9.53125 6.25 10.15 6.25 10.875C6.25 11.6 6.50625 12.2188 7.01875 12.7313C7.53125 13.2438 8.15 13.5 8.875 13.5H10C10.2125 13.5 10.3906 13.5719 10.5344 13.7156C10.6781 13.8594 10.75 14.0375 10.75 14.25C10.75 14.4625 10.6781 14.6406 10.5344 14.7844C10.3906 14.9281 10.2125 15 10 15H8.875C7.7375 15 6.76562 14.6062 5.95938 13.8188C5.15313 13.0312 4.75 12.0688 4.75 10.9312C4.75 9.95625 5.04375 9.0875 5.63125 8.325C6.21875 7.5625 6.9875 7.075 7.9375 6.8625C8.25 5.7125 8.875 4.78125 9.8125 4.06875C10.75 3.35625 11.8125 3 13 3C14.4625 3 15.7031 3.50938 16.7219 4.52813C17.7406 5.54688 18.25 6.7875 18.25 8.25C19.1125 8.35 19.8281 8.72188 20.3969 9.36563C20.9656 10.0094 21.25 10.7625 21.25 11.625C21.25 12.5625 20.9219 13.3594 20.2656 14.0156C19.6094 14.6719 18.8125 15 17.875 15H13.75C13.3375 15 12.9844 14.8531 12.6906 14.5594C12.3969 14.2656 12.25 13.9125 12.25 13.5V9.6375Z" fill="black"/>
</g>
</g>
<defs>
<filter id="filter0_d_716_4823" x="0.75" y="3" width="24.5" height="20" filterUnits="userSpaceOnUse" color-interpolation-filters="sRGB">
<feFlood flood-opacity="0" result="BackgroundImageFix"/>
<feColorMatrix in="SourceAlpha" type="matrix" values="0 0 0 0 0 0 0 0 0 0 0 0 0 0 0 0 0 0 127 0" result="hardAlpha"/>
<feOffset dy="4"/>
<feGaussianBlur stdDeviation="2"/>
<feComposite in2="hardAlpha" operator="out"/>
<feColorMatrix type="matrix" values="0 0 0 0 0 0 0 0 0 0 0 0 0 0 0 0 0 0 0.25 0"/>
<feBlend mode="normal" in2="BackgroundImageFix" result="effect1_dropShadow_716_4823"/>
<feBlend mode="normal" in="SourceGraphic" in2="effect1_dropShadow_716_4823" result="shape"/>
</filter>
</defs>
</svg>
